HIERARCHY
ROOT Hips
{
	OFFSET -3.958830 18.904000 13.208200
	CHANNELS 6 Xposition Yposition Zposition Zrotation Yrotation Xrotation 
	JOINT LHipJoint
	{
		OFFSET 0.000000 0.000000 0.000000
		CHANNELS 3 Zrotation Yrotation Xrotation
		JOINT LeftUpLeg
		{
			OFFSET 1.800000 -1.400000 0.085000
			CHANNELS 3 Zrotation Yrotation Xrotation
			JOINT LeftLeg
			{
				OFFSET 2.215000 -6.000000 0.000000
				CHANNELS 3 Zrotation Yrotation Xrotation
				JOINT LeftFoot
				{
					OFFSET 2.500000 -6.900000 0.000000
					CHANNELS 3 Zrotation Yrotation Xrotation
					JOINT LeftToeBase
					{
						OFFSET 0.200000 -0.500000 1.950000
						CHANNELS 3 Zrotation Yrotation Xrotation
						End Site
						{
							OFFSET 0.000000 0.000000 0.000000
						}
					}
				}
			}
		}
	}
	JOINT RHipJoint
	{
		OFFSET 0.000000 0.000000 0.000000
		CHANNELS 3 Zrotation Yrotation Xrotation
		JOINT RightUpLeg
		{
			OFFSET -1.800000 -1.400000 0.085000
			CHANNELS 3 Zrotation Yrotation Xrotation
			JOINT RightLeg
			{
				OFFSET -2.215000 -6.000000 0.000000
				CHANNELS 3 Zrotation Yrotation Xrotation
				JOINT RightFoot
				{
					OFFSET -2.500000 -6.900000 0.000000
					CHANNELS 3 Zrotation Yrotation Xrotation
					JOINT RightToeBase
					{
						OFFSET -0.200000 -0.500000 1.950000
						CHANNELS 3 Zrotation Yrotation Xrotation
						End Site
						{
							OFFSET 0.000000 0.000000 0.000000
						}
					}
				}
			}
		}
	}
	JOINT LowerBack
	{
		OFFSET 0.000000 0.000000 0.000000
		CHANNELS 3 Zrotation Yrotation Xrotation
		JOINT Spine
		{
			OFFSET -0.087000 1.940000 -0.288900
			CHANNELS 3 Zrotation Yrotation Xrotation
			JOINT Spine1
			{
				OFFSET 0.000000 1.950000 0.060000
				CHANNELS 3 Zrotation Yrotation Xrotation
				JOINT Neck
				{
					OFFSET 0.000000 0.000000 0.000000
					CHANNELS 3 Zrotation Yrotation Xrotation
					JOINT Neck1
					{
						OFFSET 0.000000 1.600000 0.340000
						CHANNELS 3 Zrotation Yrotation Xrotation
						JOINT Head
						{
							OFFSET 0.000000 1.667000 -0.240000
							CHANNELS 3 Zrotation Yrotation Xrotation
							End Site
							{
								OFFSET 0.000000 0.000000 0.000000
							}
						}
					}
				}
				JOINT LeftShoulder
				{
					OFFSET 0.000000 0.000000 0.000000
					CHANNELS 3 Zrotation Yrotation Xrotation
					JOINT LeftArm
					{
						OFFSET 2.700000 1.550000 -0.730000
						CHANNELS 3 Zrotation Yrotation Xrotation
						JOINT LeftForeArm
						{
							OFFSET 5.450000 0.000000 0.000000
							CHANNELS 3 Zrotation Yrotation Xrotation
							JOINT LeftHand
							{
								OFFSET 3.450000 0.000000 0.000000
								CHANNELS 3 Zrotation Yrotation Xrotation
								JOINT LeftHandIndex1
								{
									OFFSET 0.750000 0.000000 0.000000
									CHANNELS 3 Zrotation Yrotation Xrotation
									End Site
									{
										OFFSET 0.000000 0.000000 0.000000
									}
								}
							}
						}
					}
				}
				JOINT RightShoulder
				{
					OFFSET 0.000000 0.000000 0.000000
					CHANNELS 3 Zrotation Yrotation Xrotation
					JOINT RightArm
					{
						OFFSET -2.700000 1.550000 -0.730000
						CHANNELS 3 Zrotation Yrotation Xrotation
						JOINT RightForeArm
						{
							OFFSET -5.450000 0.000000 0.000000
							CHANNELS 3 Zrotation Yrotation Xrotation
							JOINT RightHand
							{
								OFFSET -3.450000 0.000000 0.000000
								CHANNELS 3 Zrotation Yrotation Xrotation
								JOINT RightHandIndex1
								{
									OFFSET -0.750000 0.000000 0.000000
									CHANNELS 3 Zrotation Yrotation Xrotation
									End Site
									{
										OFFSET 0.000000 0.000000 0.000000
									}
								}
							}
						}
					}
				}
			}
		}
	}
}
MOTION
Frames: 11
Frame Time: 0.016667
-0.027180 13.011590 -1.308840 -63.055181 -67.760581 -1.617088 -16.193643 9.780867 5.589357 -6.202764 -11.386611 -67.577399 75.240260 -25.017725 68.067004 3.216541 18.512382 -1.279112 0.672950 0.474390 0.914210 17.900842 -6.653185 4.695357 -45.366820 17.184039 -16.158903 120.410727 -44.995890 17.515237 -2.712941 -10.037346 0.792962 0.125610 -0.508030 0.219260 -3.351287 -2.211854 -10.325033 -0.548329 11.818746 71.498063 -11.878413 17.576749 20.843989 8.764722 7.906035 -23.320249 9.984330 -3.564552 68.212451 3.804760 1.834700 -16.663560 -26.376291 -33.507871 12.627623 -26.681692 3.028570 -0.890684 6.873267 6.358667 -0.273797 -3.385182 2.732865 0.837100 -0.436550 0.633020 -0.128780 5.507587 40.602625 10.988455 14.797084 -3.921644 -34.090225 -72.685250 28.874290 -22.790008 3.764476 -1.833633 0.071630 -0.029280 -0.256140 -0.262350 
-0.023150 13.042810 -1.288350 -63.913925 -67.649798 -1.133055 -16.181650 10.012641 5.815036 -4.664021 -11.816218 -66.833560 75.637081 -26.309153 69.989612 3.369834 18.862788 -1.330069 0.760290 0.600200 0.994070 17.875628 -6.997297 4.110636 -44.285395 17.447141 -16.715209 110.203537 -55.386867 27.012846 -2.742107 -10.127035 0.749298 0.173970 -0.569760 0.231150 -3.096141 -2.538402 -10.174984 -1.922948 11.792510 70.711435 -11.070887 16.606598 22.156983 9.042343 8.223005 -23.592212 11.233669 -3.366775 69.919878 1.735780 3.451440 -17.567800 -26.743570 -34.145266 13.196285 -27.253151 4.626627 -1.198310 6.801084 6.345458 -0.201597 -3.328352 2.751710 0.822170 -0.453010 0.699980 -0.104710 5.354085 40.989629 11.116435 15.661837 -1.848496 -33.901130 -71.098186 28.599366 -23.001272 3.709520 -1.900023 0.126890 -0.035750 -0.328470 -0.255540 
-0.017940 13.126520 -1.224650 -63.307254 -70.584011 -2.852871 -16.242051 9.955128 5.612733 0.331100 -9.946813 -63.366982 72.234168 -28.546157 80.856240 3.741001 20.165329 -1.557332 0.873450 0.762820 1.092550 17.869049 -6.382957 4.644076 -43.892869 20.367248 -17.957302 85.422921 -63.144286 47.997480 -2.935334 -10.808777 0.556117 0.242790 -0.657150 0.204840 -2.926829 -3.072420 -10.347875 -4.191910 13.302248 70.773832 -9.740925 17.079234 23.340977 8.447646 8.873704 -25.260603 12.455404 -4.208608 75.648075 1.584960 3.799570 -19.181310 -29.285745 -36.439348 13.674058 -27.058647 6.918589 -1.538464 7.385543 7.354620 -0.084511 -3.257398 2.677286 0.862290 -0.514070 0.801600 -0.077910 9.120354 43.450213 11.870232 19.918294 -3.204901 -35.380585 -68.523604 29.560238 -23.028339 3.787364 -1.934844 0.166170 0.005750 -0.412890 -0.257600 
-0.049440 13.162640 -1.141240 -60.123347 -71.693938 -6.815192 -16.329696 9.918898 5.393995 5.066405 -10.131415 -59.078484 65.153241 -29.411903 95.071821 4.131859 21.634078 -1.795701 0.991580 0.912910 1.212180 17.899331 -5.493897 5.213165 -44.653264 21.304250 -19.041604 61.152207 -62.128104 66.505090 -3.453653 -12.899900 0.002582 0.312100 -0.769650 0.179600 -2.516020 -4.078651 -10.619565 -6.752745 14.310979 71.086682 -6.351348 16.378216 23.618013 7.758797 8.559005 -25.343121 11.916148 -4.998180 80.260006 0.664520 3.557890 -22.615830 -32.367039 -37.565195 13.870917 -28.373452 8.403581 -2.180788 9.142877 6.879518 0.057298 -3.122819 2.688894 0.921240 -0.610610 0.916380 -0.060250 14.258161 44.607510 12.569390 23.941772 -6.128366 -35.256323 -65.112657 31.793457 -23.536707 3.689536 -1.944491 0.200580 0.044760 -0.499780 -0.265560 
-0.086970 13.119140 -1.061870 -56.561578 -72.319527 -8.323273 -16.404965 9.748947 5.475497 10.662985 -11.881512 -57.196128 57.900329 -28.794356 111.473024 4.388620 22.646359 -1.941839 1.036030 0.947890 1.293470 17.957051 -4.987925 5.347898 -45.100473 20.057993 -24.055803 33.292741 -55.199495 87.862628 -4.103077 -16.216642 -0.762622 0.330610 -0.813310 0.173840 -2.230198 -4.613405 -10.859849 -8.342810 14.038638 69.128467 -3.939617 15.234200 22.093157 6.897118 8.641032 -25.588215 13.569735 -6.828415 83.852262 0.697890 3.720710 -23.452510 -33.525469 -37.975886 13.885277 -30.892114 9.034114 -3.053543 11.111957 5.316245 0.066660 -3.080827 2.697914 0.977680 -0.639850 0.964620 -0.078770 17.947023 44.001888 13.325814 28.724780 -7.505975 -31.333564 -57.310754 28.418422 -19.450649 3.263637 -1.875231 0.195320 0.071840 -0.517800 -0.300030 
-0.201820 13.084010 -0.968730 -59.622062 -71.695509 -4.917303 -16.381971 10.241255 6.043093 16.304019 -14.223056 -56.156213 54.062295 -29.417603 119.917432 4.369358 22.846445 -2.037955 1.117690 1.026990 1.387490 17.954631 -5.955844 3.841033 -38.533058 15.668212 -27.095868 7.586468 -37.247960 102.401480 -4.029955 -16.716103 -0.972313 0.397170 -0.898330 0.204820 -1.810375 -4.917705 -10.505844 -7.250722 11.578074 66.619782 -1.630660 13.796328 22.708142 6.951593 8.927592 -25.583250 16.306079 -9.531116 87.218287 -1.205990 3.954780 -24.494450 -33.526422 -38.022384 13.560238 -33.638688 7.539079 -3.966267 14.034733 3.848906 -0.126965 -3.072256 2.770969 1.031670 -0.656800 1.019040 -0.113970 18.051494 42.996018 14.184417 34.630758 -8.481783 -25.937792 -45.618903 22.042675 -12.746092 2.820280 -1.803740 0.206310 0.048280 -0.525790 -0.356400 
-0.215090 13.095450 -0.904300 -61.822581 -73.557065 -3.843343 -16.186318 11.467799 6.152699 20.295857 -13.799012 -50.180619 48.407910 -24.143479 126.844124 3.840097 20.774433 -1.772674 1.236630 1.142190 1.514160 17.978497 -7.443283 2.287919 -30.867411 11.028565 -28.204843 -8.060734 -15.326525 98.122874 -3.265642 -13.807144 -0.422003 0.465780 -1.008590 0.239220 -1.421130 -5.268513 -9.790493 -6.993484 10.747532 66.753057 0.391413 13.297015 23.816961 6.761341 8.841315 -26.250691 15.874948 -10.422058 91.108123 -2.499870 3.937230 -27.182690 -35.311776 -39.718870 13.161597 -32.531027 5.947280 -4.178385 15.079733 3.113976 -0.447250 -3.049172 2.788501 1.094410 -0.708790 1.102180 -0.141820 20.513308 44.208709 14.834659 38.472623 -12.343344 -24.062380 -37.998215 20.280589 -9.494771 2.663671 -1.750887 0.245680 0.022560 -0.561580 -0.400810 
-0.235420 13.009750 -0.813390 -64.251270 -75.196947 -0.837588 -16.185444 11.860302 6.228431 23.906119 -13.377390 -46.036118 40.784269 -10.652358 133.364698 3.058169 17.503256 -1.176358 1.269180 1.182170 1.521050 17.906489 -7.924894 1.864424 -27.123628 6.477322 -32.525767 -16.080776 -4.239219 85.611321 -2.741806 -11.865379 0.017327 0.492020 -1.025800 0.245260 -1.488541 -5.346699 -9.587332 -4.615010 8.267549 67.009212 1.276144 11.553563 22.060161 6.233690 8.058667 -25.794043 13.222530 -9.291775 94.032698 -2.586480 4.116560 -27.252100 -38.135316 -40.084811 12.057361 -31.961794 4.720925 -6.654290 20.072046 -0.837476 -1.590646 -3.039963 2.898742 1.111880 -0.720430 1.121530 -0.127930 24.963768 43.420007 15.417289 42.818137 -15.321468 -22.502261 -31.962109 20.524273 -7.568883 2.479276 -1.643855 0.251570 0.020200 -0.572860 -0.403260 
-0.261160 12.854170 -0.762800 -71.059023 -77.566577 6.670450 -16.500063 11.470440 6.774022 31.606591 -13.036617 -42.891340 35.303103 3.662292 139.933627 2.761564 15.731132 -0.732870 1.248080 1.127510 1.479750 17.629353 -7.877543 1.797051 -20.907368 4.152490 -37.183892 -23.593561 2.695137 72.397475 -2.353883 -10.353798 0.420417 0.439740 -0.976350 0.271070 -1.920439 -5.139691 -9.719062 -1.821936 5.097978 68.206742 1.769573 10.757823 17.471555 5.397978 6.370782 -23.355353 8.132218 -6.386857 94.053608 -0.612410 3.465900 -25.483960 -38.668631 -37.255273 10.229605 -33.280170 2.799502 -10.519592 23.476219 -10.625348 -4.268065 -2.927796 3.052982 1.075320 -0.710580 1.081150 -0.105900 27.853354 40.093369 15.408238 44.510007 -15.694390 -18.352308 -26.099044 15.551154 -4.314269 2.536185 -1.533184 0.276980 -0.022230 -0.571610 -0.368400 
-0.277370 12.742210 -0.722180 -70.488839 -82.404691 6.500733 -16.619061 10.915976 7.281917 36.981942 -12.754695 -36.324225 31.737365 20.725322 146.417436 2.776383 15.530228 -0.668255 1.256550 1.149280 1.476020 17.630391 -7.431983 1.795169 -15.783245 3.402978 -40.781596 -31.658105 7.263766 57.188885 -2.050638 -8.837693 0.835629 0.454570 -0.953610 0.307530 -1.913335 -4.957172 -9.998784 -3.059220 5.863135 68.654470 2.475958 10.559174 16.809129 4.385494 5.540095 -22.743718 6.335748 -5.123428 94.034043 -0.921240 4.443440 -25.731750 -38.355796 -36.926260 9.073761 -30.720287 -0.820865 -11.593909 24.078044 -13.499317 -5.226334 -2.985949 3.068599 1.052250 -0.681170 1.078270 -0.110990 29.762681 39.708790 15.298026 44.176980 -12.657509 -11.569347 -15.846796 6.602068 -0.621645 2.617945 -1.313129 0.293840 -0.033130 -0.553380 -0.358470 
-0.223760 12.596780 -0.626210 -62.147873 -85.818143 -0.824954 -16.411921 10.082314 7.974811 39.188348 -14.089488 -31.913905 25.655493 44.816828 151.423447 4.010521 19.793879 -1.403634 1.228550 1.125450 1.437160 18.025159 -6.983515 1.603063 -13.545860 1.003848 -44.052122 -32.394490 5.233989 43.483760 -1.567574 -6.727302 1.467074 0.447150 -0.894640 0.314250 -1.614395 -4.614591 -10.422772 -4.459516 4.998303 70.194144 2.461970 8.424148 16.575494 3.202665 5.005863 -22.935305 5.156976 -3.372094 92.111755 0.129130 6.207940 -23.723980 -37.166546 -38.165407 8.994539 -25.767469 -4.481884 -13.982732 27.375905 -17.533969 -7.047396 -3.072580 3.164196 0.994370 -0.630600 1.029030 -0.094070 30.981018 40.034816 14.747920 41.826589 -8.149262 -6.931727 -7.342917 -0.774170 0.652120 2.734535 -1.118442 0.287840 -0.052770 -0.548090 -0.341910 
